<?xml version="1.0" encoding="UTF-8"?>
<svg width="135px" height="27px" viewBox="0 0 135 27" version="1.1" xmlns="http://www.w3.org/2000/svg" xmlns:xlink="http://www.w3.org/1999/xlink">
    <title>logo/rail_cargo</title>
    <g id="Symbols" stroke="none" stroke-width="1" fill="none" fill-rule="evenodd">
        <g id="logo/rail_cargo">
            <g id="logo">
                <path d="M90.5898964,17.0515385 C89.561658,18.0830769 88.4215026,18.4776923 87.4072539,18.4776923 C84.161658,18.4776923 82.7696891,16.0823077 83.4132124,13.0846154 C84.0777202,10.0038462 86.4979275,7.60846154 89.7435233,7.60846154 C91.8909326,7.60846154 93.6326425,8.91692308 93.4088083,11.2707692 L91.1774611,11.2707692 C91.1634715,10.1215385 90.4220207,9.52615385 89.3378238,9.52615385 C87.2673575,9.52615385 86.1132124,11.2707692 85.7215026,13.0846154 C85.3507772,14.8153846 85.7494819,16.56 87.826943,16.56 C89.3238342,16.56 90.3590674,15.7638462 90.7997409,14.3515385 L88.4774611,14.3515385 L88.8411917,12.6484615 L93.2479275,12.6484615 L92.0518135,18.2284615 L90.5549223,18.2284615 L90.5898964,17.0515385 Z" id="Path" fill="#FFFFFF"></path>
                <path d="M95.2974093,10.7169231 L97.276943,10.7169231 L96.9761658,12.1153846 L97.0041451,12.1153846 C97.584715,11.1738462 98.7598446,10.5161538 99.7670984,10.5161538 C99.9139896,10.5161538 100.081865,10.5438462 100.207772,10.5853846 L99.7950777,12.5030769 C99.6132124,12.4615385 99.3124352,12.4338462 99.0606218,12.4338462 C97.5357513,12.4338462 96.7733161,13.5207692 96.4865285,14.8430769 L95.7590674,18.2284615 L93.6746114,18.2284615 L95.2974093,10.7169231 Z" id="Path" fill="#FFFFFF"></path>
                <path d="M104.474611,10.5161538 C106.866839,10.5161538 108.069948,12.0876923 107.559326,14.4830769 C107.048705,16.8646154 105.167098,18.4361538 102.77487,18.4361538 C100.396632,18.4361538 99.1935233,16.8646154 99.7041451,14.4830769 C100.214767,12.0876923 102.096373,10.5161538 104.474611,10.5161538 M103.103627,16.8784615 C104.53057,16.8784615 105.209067,15.6738462 105.467876,14.4830769 C105.726684,13.2784615 105.558808,12.0738462 104.13886,12.0738462 C102.725907,12.0738462 102.047409,13.2784615 101.788601,14.4830769 C101.529793,15.6738462 101.697668,16.8784615 103.103627,16.8784615" id="Shape" fill="#FFFFFF" fill-rule="nonzero"></path>
                <path d="M109.713731,10.7169231 L111.798187,10.7169231 L110.88886,14.9607692 C110.623057,16.1930769 110.860881,16.8092308 111.826166,16.8092308 C112.959326,16.8092308 113.57487,16.1861538 113.903627,14.6561538 L114.75,10.7169231 L116.834456,10.7169231 L115.218653,18.2284615 L113.239119,18.2284615 L113.462953,17.1830769 L113.420984,17.1830769 C112.714508,18.0276923 111.714249,18.4292308 110.832902,18.4292308 C108.615544,18.4292308 108.321762,17.1969231 108.720466,15.3346154 L109.713731,10.7169231 Z" id="Path" fill="#FFFFFF"></path>
                <path d="M118.42228,10.7169231 L120.401813,10.7169231 L120.198964,11.6723077 L120.226943,11.6723077 C120.898446,10.8761538 121.800777,10.5092308 122.738083,10.5092308 C125.116321,10.5092308 125.780829,12.4130769 125.319171,14.5453846 C124.885492,16.5530769 123.367617,18.4223077 121.150259,18.4223077 C120.240933,18.4223077 119.457513,18.0276923 119.114767,17.2869231 L119.086788,17.2869231 L118.317358,20.8592308 L116.232902,20.8592308 L118.42228,10.7169231 Z M123.248705,14.4969231 C123.507513,13.3061538 123.283679,12.0669231 121.947668,12.0669231 C120.583679,12.0669231 119.884197,13.2715385 119.618394,14.4969231 C119.352591,15.7153846 119.576425,16.8784615 120.926425,16.8784615 C122.297409,16.8784615 122.989896,15.7153846 123.248705,14.4969231 L123.248705,14.4969231 Z" id="Shape" fill="#FFFFFF" fill-rule="nonzero"></path>
                <polygon id="Path" fill="#ED1B35" points="35.8904145 0.283846154 84.8821244 0.283846154 74.0471503 26.3769231 25.0554404 26.3769231"></polygon>
                <path d="M0.293782383,18.3461538 L2.62305699,18.3461538 L3.49740933,14.2546154 L5.69378238,14.2546154 C6.61010363,14.2546154 7.21865285,14.5038462 7.21865285,15.5146154 C7.21865285,16.2207692 7.09974093,16.9338462 7.09974093,17.64 C7.09974093,17.8753846 7.14170984,18.0969231 7.20466321,18.3461538 L9.47098446,18.3461538 C9.35207254,18.0346154 9.32409326,17.5984615 9.32409326,17.1276923 C9.32409326,16.4838462 9.40103627,15.7776923 9.40103627,15.3069231 C9.40103627,14.4830769 9.17720207,13.7215385 8.30284974,13.4584615 L8.30284974,13.4307692 C9.72279793,13.2230769 10.7300518,12.0392308 10.7300518,10.6130769 C10.7300518,8.59153846 9.48497409,7.83692308 7.5753886,7.87153846 L2.51813472,7.87153846 L0.293782383,18.3461538 Z M4.46968912,9.66461538 L6.68005181,9.66461538 C7.59637306,9.66461538 8.4007772,9.82384615 8.4007772,10.9523077 C8.4007772,12.1292308 7.23264249,12.5930769 6.0015544,12.6138462 L3.84715026,12.6138462 L4.46968912,9.66461538 Z" id="Shape" fill="#FFFFFF" fill-rule="nonzero"></path>
                <path d="M15.738342,15.4453846 C15.5005181,16.2692308 15.0738342,17.1623077 13.7658031,17.1623077 C13.1572539,17.1623077 12.611658,16.8853846 12.611658,16.3107692 C12.611658,15.3553846 13.3670984,15.1684615 14.1715026,15.0784615 C14.7800518,15.0369231 15.4165803,15.0230769 15.9481865,14.7115385 L15.738342,15.4453846 Z M13.4720207,13.0707692 C13.6049223,12.3092308 14.2694301,11.9561538 15.0318653,11.9561538 C15.5634715,11.9561538 16.3678756,12.1292308 16.3678756,12.8838462 C16.3678756,13.8530769 15.4305699,13.7492308 13.4440415,13.9846154 C11.6183938,14.2061538 10.5062176,15.1130769 10.5062176,16.5669231 C10.5062176,17.6261538 11.3246114,18.5607692 12.9963731,18.5607692 C13.8567358,18.5607692 14.7590674,18.2492308 15.3396373,17.6053846 L15.3396373,18.3530769 L17.4450777,18.3530769 C17.4031088,18.2215385 17.3751295,18.0415385 17.3751295,17.91 C17.3751295,17.6192308 17.4031088,17.1484615 17.4800518,16.8853846 L18.165544,13.8323077 C18.2564767,13.3615385 18.3264249,12.8769231 18.3264249,12.5584615 C18.3544041,10.8553846 16.5007772,10.5646154 15.1367876,10.5646154 C13.4020725,10.5646154 11.7722798,11.1669231 11.5064767,13.0707692 L13.4720207,13.0707692 Z" id="Shape" fill="#FFFFFF" fill-rule="nonzero"></path>
                <path d="M18.7880829,18.3461538 L20.907513,18.3461538 L22.5373057,10.7584615 L20.4178756,10.7584615 L18.7880829,18.3461538 Z M23.1668394,7.87153846 L21.0474093,7.87153846 L20.6626943,9.58846154 L22.7821244,9.58846154 L23.1668394,7.87153846 Z" id="Shape" fill="#FFFFFF" fill-rule="nonzero"></path>
                <polygon id="Path" fill="#FFFFFF" points="22.6282383 18.3461538 24.7336788 18.3461538 26.9860104 7.87153846 24.8805699 7.87153846"></polygon>
                <path d="M43.9694301,11.0284615 C44.0323834,8.47384615 42.1787565,7.13769231 39.7305699,7.13769231 C36.1562176,7.13769231 33.9528497,10.0869231 33.9528497,13.4792308 C33.9528497,16.4284615 35.6875648,18.1176923 38.6533679,18.1176923 C40.9546632,18.1176923 42.5494819,17.0169231 43.5007772,14.0953846 L41.1715026,14.0953846 C40.961658,15.1961538 39.9683938,16.1792308 38.6813472,16.1792308 C36.988601,16.1792308 36.2821244,14.9192308 36.2821244,13.4792308 C36.2821244,11.4715385 37.3663212,9.07615385 39.7515544,9.07615385 C40.8637306,9.07615385 41.6471503,9.73384615 41.6471503,11.0284615 L43.9694301,11.0284615 Z" id="Path" fill="#FFFFFF"></path>
                <path d="M49.2225389,14.9607692 C48.984715,15.7846154 48.5580311,16.6776923 47.25,16.6776923 C46.6414508,16.6776923 46.0958549,16.4007692 46.0958549,15.8261538 C46.0958549,14.8707692 46.8512953,14.6838462 47.6556995,14.5938462 C48.2642487,14.5523077 48.9007772,14.5384615 49.4323834,14.2269231 L49.2225389,14.9607692 Z M46.9562176,12.5861538 C47.0891192,11.8246154 47.7536269,11.4715385 48.5160622,11.4715385 C49.0476684,11.4715385 49.8520725,11.6446154 49.8520725,12.3992308 C49.8520725,13.3684615 48.9147668,13.2646154 46.9282383,13.5 C45.1025907,13.7215385 43.9904145,14.6284615 43.9904145,16.0823077 C43.9904145,17.1346154 44.8088083,18.0761538 46.4805699,18.0761538 C47.3409326,18.0761538 48.2432642,17.7646154 48.8238342,17.1207692 L48.8238342,17.8684615 L50.9292746,17.8684615 C50.8873057,17.7369231 50.8523316,17.5569231 50.8523316,17.4253846 C50.8523316,17.1346154 50.8803109,16.6638462 50.9572539,16.4007692 L51.6427461,13.3476923 C51.7336788,12.8769231 51.8036269,12.3923077 51.8036269,12.0738462 C51.8316062,10.3707692 49.9779793,10.08 48.6139896,10.08 C46.8792746,10.08 45.2494819,10.6823077 44.9836788,12.5861538 L46.9562176,12.5861538 L46.9562176,12.5861538 Z" id="Shape" fill="#FFFFFF"></path>
                <path d="M52.496114,17.8615385 L54.6015544,17.8615385 L55.3150259,14.5038462 C55.5948187,13.2161538 56.1753886,12.0115385 57.7911917,12.0115385 C58.0849741,12.0115385 58.3857513,12.0876923 58.6795337,12.1430769 L59.1062176,10.1215385 C58.8823834,10.0938462 58.6795337,10.08 58.4556995,10.08 C57.3295337,10.08 56.2943005,10.6338462 55.8186528,11.6792308 L55.7906736,11.6515385 L56.0984456,10.2876923 L54.0979275,10.2876923 L52.496114,17.8615385 Z" id="Path" fill="#FFFFFF"></path>
                <path d="M62.9463731,11.6446154 C63.9676166,11.6446154 64.4572539,12.3369231 64.4572539,13.2853846 C64.4572539,14.5730769 63.7297927,16.1723077 62.2189119,16.1723077 C61.2396373,16.1723077 60.7989637,15.3969231 60.7989637,14.5038462 C60.7989637,13.2853846 61.5404145,11.6446154 62.9463731,11.6446154 L62.9463731,11.6446154 Z M67.1852332,10.2807692 L65.1707254,10.2807692 L64.9329016,11.4369231 L64.9049223,11.4369231 C64.4782383,10.44 63.6178756,10.0730769 62.561658,10.0730769 C60.0994819,10.0730769 58.6935233,12.4338462 58.6935233,14.6492308 C58.6935233,16.5115385 59.8196891,17.7438462 61.6453368,17.7438462 C62.5056995,17.7438462 63.1981865,17.3907692 63.7507772,16.6707692 L63.7787565,16.6984615 C63.3660622,18.18 62.9813472,19.3361538 61.6453368,19.3361538 C60.9598446,19.3361538 60.2393782,19.0107692 60.2673575,18.2492308 L58.1619171,18.2492308 C58.1619171,20.07 59.8826425,20.7276923 61.4354922,20.7276923 C63.9676166,20.7276923 65.1427461,19.7584615 65.6603627,17.4530769 L67.1852332,10.2807692 Z" id="Shape" fill="#FFFFFF"></path>
                <path d="M67.6398964,14.8015385 C67.6398964,16.9753846 69.0178756,18.0761538 71.1512953,18.0761538 C73.9352332,18.0761538 75.6139896,15.9646154 75.6139896,13.2923077 C75.6139896,11.1046154 74.1450777,10.0799834 72.0396373,10.0799834 C69.3186528,10.0730769 67.6398964,12.2330769 67.6398964,14.8015385 M69.7453368,14.8015385 C69.7453368,13.5276923 70.430829,11.6446154 71.9696891,11.6446154 C73.0678756,11.6446154 73.5085492,12.3023077 73.5085492,13.32 C73.5085492,14.5938462 72.8300518,16.5046154 71.2562176,16.5046154 C70.2699482,16.4976923 69.7453368,15.6946154 69.7453368,14.8015385" id="Shape" fill="#FFFFFF"></path>
                <path d="M130.285492,26.2592308 L132.656736,26.2592308 C132.992487,26.2592308 133.573057,26.2107692 133.936788,25.8992308 C134.40544,25.4976923 134.489378,25.0684615 134.489378,24.7984615 C134.489378,24.1753846 134.167617,23.7184615 133.859845,23.4830769 C134.24456,23.1646154 134.356477,22.7284615 134.356477,22.41 C134.356477,22.1953846 134.258549,21.0461538 132.460881,21.0461538 L130.285492,21.0461538 L130.285492,26.2592308 L130.285492,26.2592308 Z M131.369689,21.9461538 L132.656736,21.9461538 C133.034456,21.9461538 133.328238,22.0915385 133.328238,22.5415385 C133.328238,22.9569231 133.062435,23.1369231 132.600777,23.1369231 L131.376684,23.1369231 L131.376684,21.9461538 L131.369689,21.9461538 Z M131.369689,24.0230769 L132.845596,24.0230769 C133.048446,24.0230769 133.46114,24.0507692 133.46114,24.6392308 C133.46114,25.3523077 132.971503,25.3661538 132.642746,25.3661538 L131.369689,25.3661538 L131.369689,24.0230769 L131.369689,24.0230769 Z" id="Shape" fill="#FFFFFF" fill-rule="nonzero"></path>
                <path d="M124.990415,26.2592308 L127.368653,26.2592308 C127.704404,26.2592308 128.284974,26.2107692 128.648705,25.8992308 C129.117358,25.4976923 129.201295,25.0684615 129.201295,24.7984615 C129.201295,24.1753846 128.886528,23.7184615 128.571762,23.4830769 C128.956477,23.1646154 129.068394,22.7284615 129.068394,22.41 C129.068394,22.1953846 128.970466,21.0461538 127.172798,21.0461538 L124.997409,21.0461538 L124.990415,26.2592308 Z M126.074611,21.9461538 L127.361658,21.9461538 C127.739378,21.9461538 128.033161,22.0915385 128.033161,22.5415385 C128.033161,22.9569231 127.767358,23.1369231 127.305699,23.1369231 L126.074611,23.1369231 L126.074611,21.9461538 L126.074611,21.9461538 Z M126.074611,24.0230769 L127.550518,24.0230769 C127.753368,24.0230769 128.166062,24.0507692 128.166062,24.6392308 C128.166062,25.3523077 127.676425,25.3661538 127.347668,25.3661538 L126.074611,25.3661538 L126.074611,24.0230769 L126.074611,24.0230769 Z" id="Shape" fill="#FFFFFF" fill-rule="nonzero"></path>
                <polygon id="Path" fill="#FFFFFF" points="120.688601 22.8392308 122.360363 21.0323077 123.570466 21.0323077 121.898705 22.8392308"></polygon>
                <path d="M123.318653,21.9461538 L122.577202,22.7769231 C122.731088,23.0330769 122.808031,23.3169231 122.808031,23.6284615 C122.808031,24.0715385 122.633161,24.4938462 122.311399,24.8123077 C121.989637,25.1238462 121.569948,25.3038462 121.115285,25.3038462 C120.667617,25.3038462 120.240933,25.1307692 119.919171,24.8123077 C119.604404,24.4938462 119.422539,24.0784615 119.422539,23.6284615 C119.422539,22.77 120.059067,22.0569231 120.898446,21.9669231 L121.793782,20.9769231 C121.569948,20.9215385 121.346114,20.8869231 121.10829,20.8869231 C119.576425,20.8869231 118.331347,22.1192308 118.331347,23.6353846 C118.331347,24.3692308 118.618135,25.0615385 119.142746,25.5807692 C119.667358,26.1 120.366839,26.3838462 121.10829,26.3838462 C121.849741,26.3838462 122.549223,26.1 123.073834,25.5807692 C123.598446,25.0615385 123.885233,24.3692308 123.885233,23.6353846 C123.892228,23.0053846 123.696373,22.4238462 123.318653,21.9461538" id="Path" fill="#FFFFFF"></path>
                <polygon id="Path" fill="#FFFFFF" points="83.2733161 26.3007692 83.2733161 21.9253846 84.1406736 21.9253846 85.3647668 25.3107692 86.6238342 21.9253846 87.4072539 21.9253846 87.4072539 26.3007692 86.8196891 26.3007692 86.8196891 22.7423077 85.5955959 26.01 84.9940415 26.01 83.8119171 22.7284615 83.8119171 26.3007692"></polygon>
                <path d="M91.1215026,26.1969231 C90.7297927,26.3146154 90.3870466,26.3769231 90.1072539,26.3769231 C89.6316062,26.3769231 89.2398964,26.2176923 88.9391192,25.9061538 C88.638342,25.5946154 88.484456,25.1861538 88.484456,24.6807692 C88.484456,24.1961538 88.6173575,23.7946154 88.8831606,23.4830769 C89.1489637,23.1715385 89.4917098,23.0123077 89.9044041,23.0123077 C90.296114,23.0123077 90.603886,23.1507692 90.8137306,23.4276923 C91.0305699,23.7046154 91.1354922,24.0992308 91.1354922,24.6046154 L91.1284974,24.7846154 L89.0860104,24.7846154 C89.1699482,25.5461538 89.5476684,25.9269231 90.219171,25.9269231 C90.4639896,25.9269231 90.7647668,25.8646154 91.1215026,25.7330769 L91.1215026,26.1969231 L91.1215026,26.1969231 Z M89.1139896,24.3484615 L90.5479275,24.3484615 C90.5479275,23.7530769 90.3240933,23.4553846 89.8764249,23.4553846 C89.4147668,23.4553846 89.1629534,23.7530769 89.1139896,24.3484615 L89.1139896,24.3484615 Z" id="Shape" fill="#FFFFFF" fill-rule="nonzero"></path>
                <path d="M92.3316062,26.3007692 L92.3316062,23.0884615 L92.919171,23.0884615 L92.919171,23.6907692 C93.2059585,23.2407692 93.5766839,23.0192308 94.0243523,23.0192308 C94.4580311,23.0192308 94.7518135,23.2407692 94.9126943,23.6907692 C95.192487,23.2407692 95.5562176,23.0123077 95.9968912,23.0123077 C96.2836788,23.0123077 96.507513,23.0953846 96.661399,23.2615385 C96.8222798,23.4276923 96.8992228,23.6630769 96.8992228,23.9607692 L96.8992228,26.2938462 L96.3046632,26.2938462 L96.3046632,24.0507692 C96.3046632,23.6838462 96.157772,23.5038462 95.8639896,23.5038462 C95.5562176,23.5038462 95.2414508,23.7184615 94.9056995,24.1476923 L94.9056995,26.3007692 L94.3111399,26.3007692 L94.3111399,24.0576923 C94.3111399,23.6907692 94.1642487,23.5038462 93.8634715,23.5038462 C93.5696891,23.5038462 93.2479275,23.7184615 92.9121762,24.1476923 L92.9121762,26.3007692 L92.3316062,26.3007692 L92.3316062,26.3007692 Z" id="Path" fill="#FFFFFF"></path>
                <path d="M98.2282383,26.3353846 L98.2282383,21.6346154 L98.8158031,21.6346154 L98.8158031,23.6976923 C99.0606218,23.2476923 99.4173575,23.0261538 99.9,23.0261538 C100.29171,23.0261538 100.599482,23.1646154 100.823316,23.4484615 C101.04715,23.7323077 101.159067,24.1130769 101.159067,24.6046154 C101.159067,25.1376923 101.033161,25.5669231 100.781347,25.8923077 C100.529534,26.2176923 100.193782,26.3838462 99.7810881,26.3838462 C99.3963731,26.3838462 99.0746114,26.2384615 98.8227979,25.9476923 L98.7528497,26.3492308 L98.2282383,26.3492308 L98.2282383,26.3353846 Z M98.8158031,25.5323077 C99.1165803,25.8023077 99.4103627,25.9338462 99.6831606,25.9338462 C100.249741,25.9338462 100.529534,25.5046154 100.529534,24.6530769 C100.529534,23.8984615 100.27772,23.5246154 99.7740933,23.5246154 C99.4453368,23.5246154 99.1235751,23.7046154 98.8088083,24.0576923 L98.8088083,25.5323077 L98.8158031,25.5323077 Z" id="Shape" fill="#FFFFFF" fill-rule="nonzero"></path>
                <path d="M104.642487,26.1969231 C104.250777,26.3146154 103.908031,26.3769231 103.628238,26.3769231 C103.152591,26.3769231 102.760881,26.2176923 102.460104,25.9061538 C102.159326,25.5946154 102.00544,25.1861538 102.00544,24.6807692 C102.00544,24.1961538 102.138342,23.7946154 102.404145,23.4830769 C102.669948,23.1715385 103.012694,23.0123077 103.425389,23.0123077 C103.817098,23.0123077 104.117876,23.1507692 104.334715,23.4276923 C104.551554,23.7046154 104.656477,24.0992308 104.656477,24.6046154 L104.649482,24.7846154 L102.606995,24.7846154 C102.690933,25.5461538 103.068653,25.9269231 103.740155,25.9269231 C103.984974,25.9269231 104.285751,25.8646154 104.642487,25.7330769 L104.642487,26.1969231 L104.642487,26.1969231 Z M102.634974,24.3484615 L104.068912,24.3484615 C104.068912,23.7530769 103.845078,23.4553846 103.397409,23.4553846 C102.935751,23.4553846 102.683938,23.7530769 102.634974,24.3484615 L102.634974,24.3484615 Z" id="Shape" fill="#FFFFFF" fill-rule="nonzero"></path>
                <path d="M105.852591,26.3007692 L105.852591,23.0884615 L106.440155,23.0884615 L106.440155,23.6907692 C106.670984,23.2407692 107.013731,23.0192308 107.454404,23.0192308 C107.510363,23.0192308 107.573316,23.0261538 107.643264,23.0330769 L107.643264,23.58 C107.538342,23.5453846 107.454404,23.5315385 107.377461,23.5315385 C107.006736,23.5315385 106.691969,23.7530769 106.440155,24.1892308 L106.440155,26.3076923 L105.852591,26.3076923 L105.852591,26.3007692 Z" id="Path" fill="#FFFFFF"></path>
                <path d="M111.322539,26.3769231 C110.860881,26.3769231 110.490155,26.2246154 110.210363,25.92 C109.93057,25.6153846 109.797668,25.2069231 109.797668,24.6946154 C109.797668,24.1823077 109.937565,23.7669231 110.217358,23.4692308 C110.49715,23.1715385 110.87487,23.0192308 111.350518,23.0192308 C111.826166,23.0192308 112.203886,23.1715385 112.483679,23.4692308 C112.763472,23.7669231 112.903368,24.1753846 112.903368,24.6876923 C112.903368,25.2138462 112.763472,25.6223077 112.483679,25.92 C112.189896,26.2246154 111.805181,26.3769231 111.322539,26.3769231 M111.329534,25.9338462 C111.952073,25.9338462 112.266839,25.5184615 112.266839,24.6876923 C112.266839,23.8638462 111.959067,23.4553846 111.343523,23.4553846 C110.727979,23.4553846 110.420207,23.8707692 110.420207,24.6946154 C110.420207,25.5253846 110.720984,25.9338462 111.329534,25.9338462" id="Shape" fill="#FFFFFF" fill-rule="nonzero"></path>
                <path d="M114.694041,23.5246154 L114.694041,26.3007692 L114.099482,26.3007692 L114.099482,23.5246154 L113.637824,23.5246154 L113.637824,23.0884615 L114.099482,23.0884615 L114.099482,22.7076923 C114.099482,21.9461538 114.449223,21.5584615 115.155699,21.5584615 C115.351554,21.5584615 115.575389,21.5930769 115.827202,21.6553846 L115.827202,22.1192308 C115.561399,22.0361538 115.351554,22.0015385 115.190674,22.0015385 C114.994819,22.0015385 114.868912,22.05 114.791969,22.14 C114.722021,22.23 114.687047,22.4030769 114.687047,22.6523077 L114.687047,23.0953846 L115.498446,23.0953846 L115.498446,23.5315385 L114.694041,23.5315385 L114.694041,23.5246154 Z" id="Path" fill="#FFFFFF"></path>
            </g>
        </g>
    </g>
</svg>