<?xml version="1.0" encoding="UTF-8"?>
<svg width="85px" height="18px" viewBox="0 0 85 18" version="1.1" xmlns="http://www.w3.org/2000/svg" xmlns:xlink="http://www.w3.org/1999/xlink">
    <title>logo/mike</title>
    <g id="Symbols" stroke="none" stroke-width="1" fill="none" fill-rule="evenodd">
        <g id="Header/app/mobile/320-blue" transform="translate(-118.000000, -36.000000)" fill="#F2F2F3">
            <g id="logo/mike/neg" transform="translate(118.000000, 36.000000)">
                <path d="M2.31942862,0.00424938918 C2.97624694,0.00424938918 3.60606134,0.319240519 4.07032097,0.879706072 L4.07032097,0.879706072 L6.60785814,3.94421703 L11.8439174,10.2679682 L19.6175138,0.879706072 C20.0815657,0.319240519 20.7113801,0.00424938918 21.3686138,0.00424938918 L21.3686138,0.00424938918 L23.687627,0.00424938918 L23.687627,17.9975246 L20.3432959,17.9975246 L20.3432959,4.77800494 L12.1955914,14.6025515 C12.0011632,14.8366804 11.6864638,14.8366804 11.4922433,14.6025515 L11.4922433,14.6025515 L3.3445388,4.77800494 L3.3445388,18 L-1.42108547e-14,18 L-1.42108547e-14,0.00424938918 Z M33.839022,0.0036924304 L33.839022,17.9982054 L30.4766191,17.9982054 L30.4766191,0.0036924304 L33.839022,0.0036924304 Z M84.7058824,0.000309421542 L84.7058824,3.20117213 L71.9683431,3.20117213 L66.5870859,7.50625719 L84.7015202,7.50625719 L84.7015202,10.4851615 L66.5949793,10.4851615 L71.9527639,14.7850895 L84.7058824,14.7850895 L84.7058824,17.99606 L72.1322361,17.9958538 C71.4588,17.9958538 70.805513,17.7677069 70.281637,17.3475125 L70.281637,17.3475125 L60.7193428,9.67344567 C60.2816716,9.3219428 60.2820871,8.65895558 60.7203814,8.30827783 L60.7203814,8.30827783 L70.2959698,0.647619288 C70.8192226,0.228868801 71.4710556,0.00051570257 72.1430377,0.00051570257 L72.1430377,0.00051570257 L84.7058824,0.000309421542 Z M44.4638165,0.000412562056 L44.4638165,7.50553521 L47.2483356,7.50553521 L55.8212479,0.646897304 C56.3445007,0.228146817 56.9963337,-7.10542736e-15 57.6683158,-7.10542736e-15 L57.6683158,-7.10542736e-15 L61.4941474,-7.10542736e-15 L50.2574027,8.9897272 L61.4806455,17.9965757 L57.6573065,17.9965757 C56.9838704,17.9965757 56.330791,17.7671912 55.8069151,17.3469968 L55.8069151,17.3469968 L47.2560214,10.4844395 L44.4638165,10.4844395 L44.4638165,17.9941004 L41.0879116,17.9941004 L41.0879116,0.000412562056 L44.4638165,0.000412562056 Z" id="mike_logo_pos"></path>
            </g>
        </g>
    </g>
</svg>